<?xml version="1.0" encoding="UTF-8"?>
<svg id="Layer_2" data-name="Layer 2" xmlns="http://www.w3.org/2000/svg" viewBox="0 0 47.58 46.8">
  <g id="Layer_1-2" data-name="Layer 1">
    <g>
      <g>
        <g>
          <path d="M1.82,41.5v1.03H0v-10.07H1.84v3.12c.56-.71,1.5-1.17,2.57-1.17,2,0,3.92,1.51,3.92,4.15s-1.99,4.14-3.89,4.14c-1.09,0-2.03-.43-2.61-1.2Zm4.7-2.97c0-1.37-1.05-2.45-2.4-2.45s-2.37,1.09-2.37,2.45,1.01,2.48,2.37,2.48,2.4-1.09,2.4-2.48Z" fill="#fff"/>
          <path d="M9.45,38.57c0-2.33,1.81-4.16,4.14-4.16s4.1,1.74,4.1,4.1v.69h-6.48c.26,1.13,1.14,1.88,2.45,1.88,1.03,0,1.82-.54,2.2-1.4l1.51,.87c-.69,1.29-1.92,2.15-3.71,2.15-2.5,0-4.21-1.82-4.21-4.12Zm1.85-.91h4.52c-.27-1.08-1.09-1.63-2.23-1.63s-1.96,.65-2.29,1.63Z" fill="#fff"/>
          <path d="M19.05,32.62h1.85v10.07h-1.85v-10.07Z" fill="#fff"/>
          <path d="M22.58,32.62h1.85v10.07h-1.85v-10.07Z" fill="#fff"/>
          <path d="M25.78,38.56c0-2.33,1.82-4.15,4.12-4.15s4.12,1.82,4.12,4.15-1.84,4.14-4.12,4.14-4.12-1.85-4.12-4.14Zm6.44,0c0-1.35-1.01-2.42-2.31-2.42s-2.31,1.07-2.31,2.42,.99,2.41,2.31,2.41,2.31-1.09,2.31-2.41Z" fill="#fff"/>
          <path d="M34.48,34.73h1.88l1.76,5.48,2-5.48h1.82l1.96,5.5,1.82-5.5h1.86l-2.79,7.96h-1.77l-2.01-5.51-2.07,5.51h-1.81l-2.65-7.96Z" fill="#fff"/>
        </g>
        <g>
          <path d="M5.05,44.8h.37l.7,1.97h-.38l-.12-.35h-.76l-.12,.35h-.38l.7-1.97Zm-.07,1.27h.52l-.26-.75-.26,.75Z" fill="#939598"/>
          <path d="M6.98,46.77v-1.97h.63c.47,0,.74,.28,.74,.69,0,.24-.12,.46-.33,.58l.39,.71h-.42l-.32-.6h-.33v.6h-.37Zm.6-.94c.3,0,.4-.16,.4-.36s-.12-.33-.4-.33h-.23v.69h.23Z" fill="#939598"/>
          <path d="M9.67,45.15h-.53v-.35h1.42v.35h-.53v1.62h-.37v-1.62Z" fill="#939598"/>
          <path d="M11.48,44.8h.37v1.97h-.37v-1.97Z" fill="#939598"/>
          <path d="M12.79,44.8h1.12v.35h-.75v.45h.75v.35h-.75v.82h-.37v-1.97Z" fill="#939598"/>
          <path d="M14.84,44.8h.37v1.97h-.37v-1.97Z" fill="#939598"/>
          <path d="M16.1,45.78c0-.59,.44-1.01,1.01-1.01,.37,0,.69,.19,.86,.49l-.32,.21c-.12-.21-.29-.33-.54-.33-.38,0-.65,.28-.65,.65s.27,.65,.64,.65c.27,0,.46-.15,.57-.37l.34,.18c-.17,.33-.51,.56-.89,.56-.61,0-1.01-.45-1.01-1.01Z" fill="#939598"/>
          <path d="M18.87,44.8h.37v1.97h-.37v-1.97Z" fill="#939598"/>
          <path d="M20.81,44.8h.37l.7,1.97h-.38l-.12-.35h-.76l-.12,.35h-.38l.7-1.97Zm-.07,1.27h.52l-.26-.75-.26,.75Z" fill="#939598"/>
          <path d="M22.75,44.8h.37v1.62h.72v.35h-1.09v-1.97Z" fill="#939598"/>
          <path d="M26.07,45.78c0-.56,.45-1.01,1.01-1.01s1.01,.45,1.01,1.01-.45,1.01-1.01,1.01-1.01-.45-1.01-1.01Zm1.65,0c0-.36-.29-.65-.65-.65s-.64,.29-.64,.65,.28,.65,.64,.65,.65-.29,.65-.65Z" fill="#939598"/>
          <path d="M28.97,44.8h.68c.41,0,.71,.31,.71,.7s-.3,.71-.71,.71h-.31v.56h-.37v-1.97Zm.37,.34v.73h.28c.22,0,.37-.16,.37-.36s-.15-.36-.37-.36h-.28Z" fill="#939598"/>
          <path d="M31.26,44.8h.37v1.97h-.37v-1.97Z" fill="#939598"/>
          <path d="M32.57,44.8h.42l.85,1.34v-1.34h.37v1.97h-.39l-.88-1.39v1.39h-.37v-1.97Z" fill="#939598"/>
          <path d="M35.16,44.8h.37v1.97h-.37v-1.97Z" fill="#939598"/>
          <path d="M36.42,45.78c0-.56,.45-1.01,1.01-1.01s1.01,.45,1.01,1.01-.45,1.01-1.01,1.01-1.01-.45-1.01-1.01Zm1.65,0c0-.36-.29-.65-.65-.65s-.64,.29-.64,.65,.28,.65,.64,.65,.65-.29,.65-.65Z" fill="#939598"/>
          <path d="M39.32,44.8h.42l.85,1.34v-1.34h.37v1.97h-.39l-.88-1.39v1.39h-.37v-1.97Z" fill="#939598"/>
          <path d="M41.79,46.44l.34-.26c.1,.17,.25,.27,.43,.27,.19,0,.3-.13,.3-.26,0-.16-.2-.22-.41-.28-.27-.09-.56-.19-.56-.56,0-.32,.28-.56,.65-.56,.32,0,.5,.12,.66,.29l-.3,.23c-.08-.13-.2-.19-.36-.19-.18,0-.28,.1-.28,.22,0,.16,.19,.21,.4,.28,.27,.09,.57,.21,.57,.58,0,.31-.25,.61-.68,.61-.35,0-.59-.15-.77-.35Z" fill="#939598"/>
        </g>
      </g>
      <g>
        <path d="M15.12,26.67v-.46c0-3.33,2.97-5.87,6.26-5.36,0,0,0,0,0,0,2.28,.52,3.76,.5,4.71,.18,0,0,.27,3.19-3.73,4.19s-5,0-7.24,1.44Z" fill="#4e01a9"/>
        <path d="M18.89,12.98l1.33,.21,5.3-2.78V4.32c0-1.56-1.14-2.89-2.68-3.13L15.12,0V8.57c0,2.2,1.6,4.07,3.77,4.41Z" fill="#4e01a9"/>
        <path d="M25.52,5.91v1.01c-1.16-.17-3.82,.38-4.44,2.34-.04,.14-.08,.27-.1,.42-.09,.57-.06,1.1,.05,1.58,.3,1.46,1.22,2.41,1.22,2.41-.66-.22-1.34-.38-2.02-.48,0,0-.38-.65-.62-1.66-.12-.53-.21-1.16-.18-1.85,.08-1.91,1.85-3.74,6.09-3.77Z" fill="#88169f"/>
        <path d="M25.52,6.87v.86c-1.71,.39-3.21,1.42-2.95,3.21v.03c.28,1.81,1.7,3.32,2.65,4.16-.9-.64-1.91-1.12-2.97-1.46,0,0-.92-.95-1.22-2.41-.11-.48-.14-1.01-.05-1.58,.02-.15,.06-.29,.1-.42,.44-1.78,1.8-2.41,4.44-2.39Z" fill="#ff4979"/>
        <path d="M22.95,27.88s6.6-.63,5.84-7.12c-.17-1.49-.75-2.71-1.52-3.69-.35-.46-.75-.88-1.18-1.25-.27-.25-.56-.48-.86-.69h-.01c-.96-.84-2.39-2.37-2.65-4.19-.26-1.79,1.24-2.82,2.95-3.21v1.16c-.59,.39-1.05,.94-1.28,1.7-1.06,3.42,5.28,5.03,6.31,9.92,1.04,4.89-2.01,7.71-7.6,7.37Z" fill="#ff9551"/>
        <path d="M22.95,27.88c5.59,.34,8.64-2.48,7.6-7.37-1.03-4.89-7.37-6.5-6.31-9.92,.23-.76,.69-1.31,1.28-1.7v1.52s.01,.05,.01,.08c0,.02,.01,.05,.01,.08,0,.04,.02,.08,.03,.12,.01,.06,.03,.11,.04,.17,.04,.11,.09,.23,.14,.35,.02,.04,.04,.08,.06,.12,.04,.08,.09,.16,.14,.24,.03,.06,.07,.13,.12,.19,.04,.06,.08,.12,.12,.19,.05,.07,.11,.14,.16,.22,.06,.07,.12,.15,.18,.22,.05,.07,.11,.13,.17,.21,.07,.08,.15,.17,.22,.26,.08,.09,.16,.19,.25,.28,.08,.09,.16,.18,.25,.28,.09,.09,.18,.19,.26,.28,.07,.07,.14,.15,.21,.22,.06,.07,.13,.15,.2,.22,.1,.1,.19,.2,.29,.31,1.58,1.7,3.35,3.69,3.94,6.05,1.27,5.05-1.55,8.6-9.37,7.38Z" fill="#ffb940"/>
        <path d="M22.95,27.89l-4.8-.75c10.01,.07,9.52-8.24,9.52-8.24,.01-.9-.35-1.73-.39-1.83,.76,.98,1.35,2.2,1.52,3.69,.76,6.49-5.85,7.12-5.85,7.12Z" fill="#ff4979"/>
        <path d="M18.15,27.14h0l-3.02-.47s1.94-2.05,6.07-2.16c4.44-.12,4.9-3.47,4.9-3.47,1.22-.41,1.56-1.3,1.57-2.14,0,0,.49,8.31-9.52,8.24Z" fill="#88169f"/>
      </g>
    </g>
  </g>
</svg>